<svg width="31" height="31" viewBox="0 0 31 31" fill="none" xmlns="http://www.w3.org/2000/svg">
<path d="M10.0747 2.58398H20.9247C25.058 2.58398 28.4163 5.94232 28.4163 10.0757V20.9257C28.4163 22.9126 27.627 24.8181 26.2221 26.2231C24.8171 27.628 22.9116 28.4173 20.9247 28.4173H10.0747C5.94134 28.4173 2.58301 25.059 2.58301 20.9257V10.0757C2.58301 8.08874 3.37231 6.1832 4.77727 4.77824C6.18223 3.37328 8.08776 2.58398 10.0747 2.58398ZM9.81634 5.16732C8.58308 5.16732 7.40034 5.65723 6.5283 6.52927C5.65625 7.40132 5.16634 8.58406 5.16634 9.81732V21.184C5.16634 23.7544 7.24592 25.834 9.81634 25.834H21.183C22.4163 25.834 23.599 25.3441 24.4711 24.472C25.3431 23.6 25.833 22.4172 25.833 21.184V9.81732C25.833 7.2469 23.7534 5.16732 21.183 5.16732H9.81634ZM22.2809 7.10482C22.7091 7.10482 23.1198 7.27493 23.4226 7.57772C23.7254 7.88051 23.8955 8.29119 23.8955 8.7194C23.8955 9.14762 23.7254 9.55829 23.4226 9.86108C23.1198 10.1639 22.7091 10.334 22.2809 10.334C21.8527 10.334 21.442 10.1639 21.1392 9.86108C20.8364 9.55829 20.6663 9.14762 20.6663 8.7194C20.6663 8.29119 20.8364 7.88051 21.1392 7.57772C21.442 7.27493 21.8527 7.10482 22.2809 7.10482ZM15.4997 9.04232C17.2125 9.04232 18.8552 9.72275 20.0664 10.9339C21.2776 12.1451 21.958 13.7878 21.958 15.5007C21.958 17.2135 21.2776 18.8562 20.0664 20.0674C18.8552 21.2786 17.2125 21.959 15.4997 21.959C13.7868 21.959 12.1441 21.2786 10.9329 20.0674C9.72177 18.8562 9.04134 17.2135 9.04134 15.5007C9.04134 13.7878 9.72177 12.1451 10.9329 10.9339C12.1441 9.72275 13.7868 9.04232 15.4997 9.04232ZM15.4997 11.6257C14.472 11.6257 13.4863 12.0339 12.7596 12.7606C12.0329 13.4873 11.6247 14.4729 11.6247 15.5007C11.6247 16.5284 12.0329 17.514 12.7596 18.2407C13.4863 18.9674 14.472 19.3757 15.4997 19.3757C16.5274 19.3757 17.513 18.9674 18.2397 18.2407C18.9664 17.514 19.3747 16.5284 19.3747 15.5007C19.3747 14.4729 18.9664 13.4873 18.2397 12.7606C17.513 12.0339 16.5274 11.6257 15.4997 11.6257Z" fill="white"/>
</svg>
