<svg width="31" height="31" viewBox="0 0 31 31" fill="none" xmlns="http://www.w3.org/2000/svg">
<path d="M15.4997 5.16602C16.6041 5.16602 17.7368 5.19443 18.8348 5.24093L20.1316 5.30293L21.3729 5.37656L22.5354 5.45535L23.5971 5.53802C24.7494 5.62621 25.8336 6.11791 26.6591 6.92661C27.4845 7.73531 27.9984 8.80921 28.1102 9.95939L28.1619 10.5083L28.2588 11.6838C28.3492 12.9018 28.4163 14.2296 28.4163 15.4993C28.4163 16.7691 28.3492 18.0969 28.2588 19.3149L28.1619 20.4903C28.1451 20.6789 28.1283 20.8611 28.1102 21.0393C27.9984 22.1897 27.4843 23.2638 26.6586 24.0725C25.8328 24.8812 24.7483 25.3728 23.5958 25.4607L22.5367 25.5421L21.3742 25.6221L20.1316 25.6958L18.8348 25.7578C17.7237 25.806 16.6118 25.831 15.4997 25.8327C14.3876 25.831 13.2756 25.806 12.1646 25.7578L10.8678 25.6958L9.62647 25.6221L8.46397 25.5421L7.40222 25.4607C6.24999 25.3725 5.16576 24.8808 4.34029 24.0721C3.51481 23.2634 3.00096 22.1895 2.88913 21.0393L2.83747 20.4903L2.74059 19.3149C2.64183 18.0454 2.58926 16.7727 2.58301 15.4993C2.58301 14.2296 2.65017 12.9018 2.74059 11.6838L2.83747 10.5083C2.85426 10.3198 2.87105 10.1376 2.88913 9.95939C3.00091 8.80942 3.51458 7.73568 4.33979 6.927C5.16501 6.11832 6.24892 5.6265 7.40092 5.53802L8.46138 5.45535L9.62388 5.37656L10.8665 5.30293L12.1633 5.24093C13.2748 5.19267 14.3871 5.16769 15.4997 5.16602ZM15.4997 7.74935C14.4341 7.74935 13.3374 7.77777 12.2705 7.82168L11.0073 7.88239L9.79438 7.95343L8.65513 8.03093L7.61147 8.11231C7.06294 8.15123 6.5459 8.3831 6.152 8.76683C5.75811 9.15056 5.5128 9.66136 5.45955 10.2087C5.30842 11.7703 5.16634 13.7143 5.16634 15.4993C5.16634 17.2844 5.30842 19.2284 5.45955 20.79C5.56934 21.9163 6.46317 22.7921 7.61147 22.8864L8.65513 22.9665L9.79438 23.044L11.0073 23.1163L12.2705 23.177C13.3374 23.2209 14.4341 23.2493 15.4997 23.2493C16.5653 23.2493 17.6619 23.2209 18.7288 23.177L19.9921 23.1163L21.205 23.0453L22.3442 22.9678L23.3879 22.8864C23.9364 22.8475 24.4535 22.6156 24.8473 22.2319C25.2412 21.8481 25.4866 21.3373 25.5398 20.79C25.6909 19.2284 25.833 17.2844 25.833 15.4993C25.833 13.7143 25.6909 11.7703 25.5398 10.2087C25.4866 9.66136 25.2412 9.15056 24.8473 8.76683C24.4535 8.3831 23.9364 8.15123 23.3879 8.11231L22.3442 8.03222L21.205 7.95472L19.9921 7.88239L18.7288 7.82168C17.6531 7.7754 16.5764 7.75128 15.4997 7.74935ZM12.9163 12.3671C12.9163 12.2408 12.947 12.1165 13.0059 12.0048C13.0649 11.8932 13.1502 11.7976 13.2544 11.7264C13.3587 11.6553 13.4788 11.6106 13.6042 11.5965C13.7297 11.5823 13.8567 11.5989 13.9742 11.645L14.0788 11.6967L19.5038 14.8277C19.6119 14.89 19.7033 14.9775 19.7702 15.0827C19.8372 15.1879 19.8778 15.3077 19.8886 15.432C19.8994 15.5562 19.88 15.6813 19.8322 15.7964C19.7843 15.9116 19.7093 16.0135 19.6136 16.0935L19.5038 16.171L14.0788 19.3033C13.9695 19.3666 13.8464 19.4022 13.7201 19.4071C13.5939 19.4119 13.4684 19.3858 13.3545 19.3311C13.2407 19.2763 13.142 19.1945 13.0669 19.0929C12.9919 18.9913 12.9429 18.8728 12.9241 18.7479L12.9163 18.6316V12.3671Z" fill="white"/>
</svg>
