<svg width="88" height="88" viewBox="0 0 88 88" fill="none" xmlns="http://www.w3.org/2000/svg">
<circle cx="44" cy="44" r="44" fill="#FF0E49"/>
<path d="M29.5984 58.7655H35.0539L39.442 65.0512C39.8571 65.6442 40.4501 66 41.1617 66C41.8733 66 42.5256 65.6442 42.8814 65.0512L47.2695 58.7655H58.655C63.3989 58.7655 67.2534 54.9111 67.2534 50.1671V30.5984C67.2534 25.8544 63.3989 22 58.655 22H29.5984C24.8544 22 21 25.8544 21 30.5984V50.1671C21 54.9111 24.8544 58.7655 29.5984 58.7655ZM23.965 30.5984C23.965 27.5148 26.5148 24.965 29.5984 24.965H58.655C61.7385 24.965 64.2884 27.5148 64.2884 30.5984V50.1671C64.2884 53.2507 61.7385 55.8005 58.655 55.8005H46.4987C46.0243 55.8005 45.5499 56.0377 45.3127 56.4528L41.1617 62.3235L37.0108 56.4528C36.7143 56.0377 36.2992 55.8005 35.8248 55.8005H29.5984C26.5148 55.8005 23.965 53.2507 23.965 50.1671V30.5984Z" fill="white"/>
<path d="M31.0811 34.8087H57.7657C58.5959 34.8087 59.2482 34.1564 59.2482 33.3262C59.2482 32.496 58.5959 31.8438 57.7657 31.8438H31.0811C30.2509 31.8438 29.5986 32.496 29.5986 33.3262C29.5986 34.1564 30.2509 34.8087 31.0811 34.8087Z" fill="white"/>
<path d="M31.0811 41.9239H57.7657C58.5959 41.9239 59.2482 41.2717 59.2482 40.4415C59.2482 39.6113 58.5959 38.959 57.7657 38.959H31.0811C30.2509 38.959 29.5986 39.6113 29.5986 40.4415C29.5986 41.2717 30.2509 41.9239 31.0811 41.9239Z" fill="white"/>
<path d="M31.0811 48.4474H47.0919C47.9221 48.4474 48.5744 47.7951 48.5744 46.9649C48.5744 46.1347 47.9221 45.4824 47.0919 45.4824H31.0811C30.2509 45.4824 29.5986 46.1347 29.5986 46.9649C29.5986 47.7951 30.2509 48.4474 31.0811 48.4474Z" fill="white"/>
</svg>
