<svg width="18" height="24" viewBox="0 0 18 24" fill="none" xmlns="http://www.w3.org/2000/svg">
<path d="M8.74965 11.24C5.91859 11.24 3.62964 8.95108 3.62964 6.12001C3.62964 3.28895 5.91859 1 8.74965 1C11.5807 1 13.8697 3.28895 13.8697 6.12001C13.8697 8.95108 11.5807 11.24 8.74965 11.24ZM8.74965 2.20471C6.58118 2.20471 4.83435 3.95154 4.83435 6.12001C4.83435 8.28849 6.58118 10.0353 8.74965 10.0353C10.9181 10.0353 12.665 8.28849 12.665 6.12001C12.665 3.95154 10.9181 2.20471 8.74965 2.20471Z" fill="#FF0E43" stroke="#FF0E43" stroke-width="0.6" stroke-miterlimit="10"/>
<path d="M16.2916 23.0799H1.23273C0.901431 23.0799 0.630371 22.8088 0.630371 22.4775V17.3274C0.630371 14.8577 2.64826 12.8398 5.11791 12.8398H12.4365C14.8761 12.8398 16.8939 14.8577 16.8939 17.3274V22.4775C16.8939 22.8088 16.6229 23.0799 16.2916 23.0799ZM1.83508 21.8752H15.6892V17.3274C15.6892 15.5203 14.2135 14.0446 12.4064 14.0446H5.11791C3.31085 14.0446 1.83508 15.5203 1.83508 17.3274V21.8752Z" fill="#FF0E43" stroke="#FF0E43" stroke-width="0.6" stroke-miterlimit="10"/>
</svg>
