<svg width="26" height="12" viewBox="0 0 26 12" fill="none" xmlns="http://www.w3.org/2000/svg">
<path d="M25 6.8C25.4418 6.8 25.8 6.44183 25.8 6C25.8 5.55817 25.4418 5.2 25 5.2L25 6.8ZM0.434315 5.43431C0.121895 5.74673 0.121895 6.25326 0.434315 6.56568L5.52548 11.6569C5.8379 11.9693 6.34443 11.9693 6.65685 11.6569C6.96927 11.3444 6.96927 10.8379 6.65685 10.5255L2.13137 6L6.65686 1.47451C6.96927 1.1621 6.96927 0.655564 6.65686 0.343144C6.34444 0.0307248 5.8379 0.0307248 5.52548 0.343144L0.434315 5.43431ZM25 5.2L1 5.2L1 6.8L25 6.8L25 5.2Z" fill="black"/>
</svg>
