<svg width="27" height="22" viewBox="0 0 27 22" fill="none" xmlns="http://www.w3.org/2000/svg">
<path d="M1.68966 0.00113724C1.5796 0.00685029 1.47175 0.0341874 1.37225 0.0815875C1.27276 0.128988 1.18358 0.195522 1.10981 0.277391C1.03603 0.359261 0.979102 0.454861 0.942276 0.558733C0.90545 0.662605 0.889447 0.772713 0.895179 0.882771C0.900911 0.992828 0.928267 1.10068 0.975684 1.20016C1.0231 1.29965 1.08965 1.38882 1.17153 1.46258C1.25342 1.53634 1.34903 1.59325 1.4529 1.63006C1.55678 1.66687 1.66689 1.68285 1.77695 1.6771H4.48293L7.94833 14.465C7.99644 14.6434 8.10211 14.8008 8.24892 14.9129C8.39572 15.0249 8.57543 15.0854 8.76013 15.0848H22.4472C22.5582 15.0864 22.6684 15.0659 22.7715 15.0244C22.8745 14.983 22.9683 14.9216 23.0474 14.8436C23.1265 14.7656 23.1893 14.6727 23.2321 14.5703C23.275 14.4678 23.2971 14.3579 23.2971 14.2468C23.2971 14.1358 23.275 14.0258 23.2321 13.9234C23.1893 13.8209 23.1265 13.728 23.0474 13.65C22.9683 13.5721 22.8745 13.5106 22.7715 13.4692C22.6684 13.4278 22.5582 13.4073 22.4472 13.4088H9.40607L9.10056 12.2915H23.0058C23.1894 12.2926 23.3682 12.2335 23.5149 12.1231C23.6615 12.0127 23.7679 11.8572 23.8176 11.6805L26.0522 3.58002C26.0874 3.45502 26.093 3.32356 26.0687 3.19602C26.0443 3.06847 25.9907 2.94833 25.912 2.84506C25.8332 2.7418 25.7316 2.65824 25.6151 2.60097C25.4985 2.54371 25.3703 2.5143 25.2404 2.51508H6.45568L5.94067 0.620894C5.89256 0.442576 5.78689 0.285144 5.64009 0.173068C5.49329 0.0609923 5.31357 0.000550754 5.12888 0.00113724H1.77695C1.74787 -0.000379081 1.71874 -0.000379081 1.68966 0.00113724ZM6.90959 4.19104H24.1318L22.3599 10.6156H8.64665L6.90959 4.19104ZM10.9947 16.2021C9.61626 16.2021 8.4808 17.3376 8.4808 18.7161C8.4808 20.0945 9.61626 21.23 10.9947 21.23C12.3732 21.23 13.5087 20.0945 13.5087 18.7161C13.5087 17.3376 12.3732 16.2021 10.9947 16.2021ZM20.4919 16.2021C19.1134 16.2021 17.9779 17.3376 17.9779 18.7161C17.9779 20.0945 19.1134 21.23 20.4919 21.23C21.8704 21.23 23.0058 20.0945 23.0058 18.7161C23.0058 17.3376 21.8704 16.2021 20.4919 16.2021ZM10.9947 17.8781C11.4675 17.8781 11.8327 18.2433 11.8327 18.7161C11.8327 19.1888 11.4675 19.554 10.9947 19.554C10.522 19.554 10.1568 19.1888 10.1568 18.7161C10.1568 18.2433 10.522 17.8781 10.9947 17.8781ZM20.4919 17.8781C20.9646 17.8781 21.3298 18.2433 21.3298 18.7161C21.3298 19.1888 20.9646 19.554 20.4919 19.554C20.0191 19.554 19.6539 19.1888 19.6539 18.7161C19.6539 18.2433 20.0191 17.8781 20.4919 17.8781Z" fill="#FF0043"/>
</svg>
