<svg width="29" height="26" viewBox="0 0 29 26" fill="none" xmlns="http://www.w3.org/2000/svg">
<path d="M22.6248 10.1426C19.5794 10.1426 17.0002 12.7363 17.0002 15.809C17.0002 19.0265 19.9895 22.3168 22.0004 24.6295C22.008 24.6387 22.333 24.9997 22.7335 24.9997H22.769C23.1695 24.9997 23.4921 24.6387 23.5002 24.6295C25.3873 22.4601 28.1431 18.8832 28.1431 15.809C28.1431 12.7363 26.1314 10.1426 22.6248 10.1426ZM22.811 24.0066C22.7948 24.0229 22.7711 24.041 22.7502 24.0561C22.7288 24.0414 22.7056 24.0229 22.6884 24.0066L22.4456 23.7274C20.5393 21.5403 17.9288 18.5455 17.9288 15.809C17.9288 13.2408 20.0794 11.0709 22.6248 11.0709C25.7954 11.0709 27.2145 13.4504 27.2145 15.809C27.2145 17.8864 25.7328 20.6447 22.811 24.0066ZM22.5879 12.9541C21.0495 12.9541 19.8022 14.2014 19.8022 15.7398C19.8022 17.2782 21.0495 18.5255 22.5879 18.5255C24.1263 18.5255 25.3736 17.2782 25.3736 15.7398C25.3736 14.2014 24.1263 12.9541 22.5879 12.9541ZM22.5879 17.5969C21.5639 17.5969 20.7094 16.7436 20.7094 15.7193C20.7094 14.6954 21.5426 13.8622 22.5665 13.8622C23.5912 13.8622 24.4237 14.6954 24.4237 15.7193C24.4241 16.7436 23.6126 17.5969 22.5879 17.5969Z" fill="#FF0E49" stroke="#FF0E49" stroke-width="0.4"/>
<path d="M6.62459 10.1426C3.57911 10.1426 1 12.7363 1 15.809C1 19.0265 3.9893 22.3168 6.00012 24.6295C6.00779 24.6387 6.3328 24.9997 6.73323 24.9997H6.76876C7.16921 24.9997 7.49189 24.6387 7.5 24.6295C9.38709 22.4601 12.1429 18.8832 12.1429 15.809C12.1429 12.7363 10.1311 10.1426 6.62459 10.1426ZM6.81077 24.0066C6.79452 24.0229 6.77082 24.041 6.74993 24.0561C6.72857 24.0414 6.70536 24.0229 6.6882 24.0066L6.44536 23.7274C4.53902 21.5403 1.92857 18.5455 1.92857 15.809C1.92857 13.2408 4.07914 11.0709 6.62459 11.0709C9.7952 11.0709 11.2143 13.4504 11.2143 15.809C11.2143 17.8864 9.73252 20.6447 6.81077 24.0066ZM6.58766 12.9541C5.04925 12.9541 3.80195 14.2014 3.80195 15.7398C3.80195 17.2782 5.04925 18.5255 6.58766 18.5255C8.12608 18.5255 9.37338 17.2782 9.37338 15.7398C9.37338 14.2014 8.12608 12.9541 6.58766 12.9541ZM6.58766 17.5969C5.56368 17.5969 4.70915 16.7436 4.70915 15.7193C4.70915 14.6954 5.54231 13.8622 6.56629 13.8622C7.59097 13.8622 8.42344 14.6954 8.42344 15.7193C8.4239 16.7436 7.61234 17.5969 6.58766 17.5969Z" fill="#FF0E49" stroke="#FF0E49" stroke-width="0.4"/>
<path d="M14.7144 25L7.85721 16.4286L6.71436 11.2857L7.28578 6.71428L10.1429 3.28571L14.7144 2.14286L19.2858 3.28571L22.1429 6.71428L22.7144 11.2857L21.5715 16.4286L14.7144 25Z" fill="white"/>
<path d="M14.6572 1C9.73754 1 5.57129 5.18988 5.57129 10.1534C5.57129 15.3509 10.4002 20.6661 13.6484 24.4019C13.6608 24.4169 14.1858 25 14.8327 25H14.8901C15.5369 25 16.0582 24.4169 16.0713 24.4019C19.1197 20.8975 23.5713 15.1195 23.5713 10.1534C23.5713 5.18988 20.3215 1 14.6572 1ZM14.9579 23.3958C14.9317 23.422 14.8934 23.4513 14.8596 23.4756C14.8251 23.452 14.7876 23.422 14.7599 23.3958L14.3676 22.9446C11.2882 19.4118 7.07129 14.5739 7.07129 10.1534C7.07129 6.00475 10.5453 2.49962 14.6572 2.49962C19.7789 2.49962 22.0713 6.34338 22.0713 10.1534C22.0713 13.5093 19.6777 17.965 14.9579 23.3958ZM14.5975 5.54163C12.1124 5.54163 10.0975 7.5565 10.0975 10.0416C10.0975 12.5267 12.1124 14.5416 14.5975 14.5416C17.0826 14.5416 19.0975 12.5267 19.0975 10.0416C19.0975 7.5565 17.0826 5.54163 14.5975 5.54163ZM14.5975 13.0416C12.9434 13.0416 11.563 11.6631 11.563 10.0086C11.563 8.3545 12.9089 7.00863 14.563 7.00863C16.2182 7.00863 17.563 8.3545 17.563 10.0086C17.5637 11.6631 16.2528 13.0416 14.5975 13.0416Z" fill="#FF0E49" stroke="#FF0E49" stroke-width="0.2"/>
</svg>
