<svg width="25" height="23" viewBox="0 0 25 23" fill="none" xmlns="http://www.w3.org/2000/svg">
<path d="M12.8869 22.55L11.1841 21.0233C9.20719 19.2421 7.57283 17.7057 6.28101 16.4138C4.98918 15.122 3.9616 13.9623 3.19824 12.9347C2.43489 11.9071 1.90152 10.9627 1.59814 10.1015C1.29476 9.24028 1.14307 8.35949 1.14307 7.45913C1.14307 5.61926 1.75962 4.08277 2.99273 2.84966C4.22583 1.61655 5.76232 1 7.60219 1C8.62 1 9.58887 1.2153 10.5088 1.64591C11.4287 2.07652 12.2214 2.68329 12.8869 3.46621C13.5524 2.68329 14.3451 2.07652 15.2651 1.64591C16.185 1.2153 17.1539 1 18.1717 1C20.0115 1 21.548 1.61655 22.7811 2.84966C24.0143 4.08277 24.6308 5.61926 24.6308 7.45913C24.6308 8.35949 24.4791 9.24028 24.1757 10.1015C23.8723 10.9627 23.339 11.9071 22.5756 12.9347C21.8123 13.9623 20.7847 15.122 19.4929 16.4138C18.201 17.7057 16.5667 19.2421 14.5898 21.0233L12.8869 22.55ZM12.8869 19.3792C14.766 17.6959 16.3122 16.2523 17.5258 15.0486C18.7393 13.8449 19.6984 12.7977 20.403 11.9071C21.1076 11.0165 21.597 10.2238 21.871 9.52899C22.145 8.83414 22.282 8.14419 22.282 7.45913C22.282 6.28474 21.8906 5.30609 21.1076 4.52316C20.3247 3.74024 19.3461 3.34877 18.1717 3.34877C17.2517 3.34877 16.4003 3.60812 15.6174 4.12681C14.8345 4.64549 14.2962 5.30609 14.0026 6.10858H11.7713C11.4777 5.30609 10.9394 4.64549 10.1565 4.12681C9.37356 3.60812 8.52213 3.34877 7.60219 3.34877C6.42781 3.34877 5.44915 3.74024 4.66623 4.52316C3.8833 5.30609 3.49184 6.28474 3.49184 7.45913C3.49184 8.14419 3.62885 8.83414 3.90288 9.52899C4.1769 10.2238 4.66623 11.0165 5.37086 11.9071C6.07549 12.7977 7.03457 13.8449 8.24811 15.0486C9.46164 16.2523 11.0079 17.6959 12.8869 19.3792Z" fill="#FF0043" stroke="white" stroke-width="0.5"/>
</svg>
